<svg width="72.000000" height="41.000000" viewBox="0 0 72 41" fill="none" xmlns="http://www.w3.org/2000/svg" xmlns:xlink="http://www.w3.org/1999/xlink">
	<desc>
			Created with Pixso.
	</desc>
	<defs/>
	<path id="XMLID 38" d="M9.66 6.6C9.07 6.31 5.39 9.01 5.08 9.28C3.72 10.46 1.88 12.22 3.44 13.56C5.03 14.93 7.63 15.39 9.59 16.47C11.63 17.59 9.82 19.7 8.87 20.93C6.49 24.02 4.41 27.32 2.64 30.55C2.16 31.41 -1.25 40.28 0.11 40.34C-0.69 40.3 2.81 32.62 3.13 32.12C5.37 28.59 8.5 25.27 11.71 22.01C13.01 20.69 14.35 19.01 13.95 17.44C13.55 15.84 10.94 15.01 8.75 14.26C5.86 13.29 4.27 12.74 5.79 10.72C6.12 10.28 9.94 6.74 9.66 6.6Z" fill="#ED165F" fill-opacity="1.000000" fill-rule="nonzero"/>
	<path id="XMLID 37" d="M7.13 2.47C7.21 2.43 7.25 2.27 7.29 2.1C7.34 1.93 7.39 1.75 7.48 1.67C7.73 1.45 7.95 1.37 8.19 1.36C8.42 1.35 8.67 1.42 8.97 1.49C9.28 1.57 9.55 1.71 9.82 1.85C10.09 1.98 10.37 2.12 10.71 2.18C11.05 2.24 11.35 2.24 11.65 2.22C11.94 2.21 12.24 2.18 12.57 2.18C13.07 2.18 13.65 2.21 14.11 2.37C14.56 2.54 14.89 2.83 14.9 3.36C14.92 3.96 14.51 4.2 14.04 4.37C13.57 4.54 13.03 4.65 12.77 5.01C12.75 5.04 13.39 5.5 14.06 5.97C14.73 6.44 15.43 6.93 15.55 7.01C16.19 7.43 16.85 7.77 17.57 8.04C18.28 8.3 19.04 8.49 19.86 8.6C20.63 8.7 21.25 8.79 22.07 8.68C22.52 8.62 23.34 8.5 24.06 8.01C24.39 7.79 24.65 7.52 24.85 7.32C25.34 6.84 25.53 6.5 25.58 6.52C25.64 6.54 25.43 7.05 25.06 7.56C24.93 7.74 24.65 8.12 24.2 8.45C23.38 9.05 22.4 9.18 21.59 9.27C20.42 9.42 19.44 9.32 18.82 9.23C17.61 9.06 16.43 8.84 14.01 7.49C12.51 6.65 11.06 5.72 9.48 5.14C8.82 4.9 6.84 4.24 5.15 3.4C3.46 2.55 2.06 1.53 2.57 0.58C3.14 -0.5 3.98 0.1 4.83 0.91C5.67 1.71 6.53 2.72 7.13 2.47Z" fill="#ED165F" fill-opacity="1.000000" fill-rule="nonzero"/>
	<path id="XMLID 33" d="M25.04 17.48C25.26 17.48 25.45 17.52 25.6 17.62C25.74 17.71 25.85 17.81 25.93 17.93C26 18.05 26.05 18.17 26.07 18.3C26.09 18.43 26.09 18.54 26.08 18.63C26.03 18.86 25.92 19.16 25.74 19.52C25.56 19.88 25.36 20.28 25.12 20.71C24.89 21.15 24.63 21.61 24.35 22.1C24.07 22.59 23.81 23.07 23.55 23.54C23.3 24.01 23.07 24.47 22.87 24.92C22.67 25.36 22.52 25.76 22.43 26.11C22.36 26.39 22.37 26.55 22.46 26.58C22.56 26.61 22.73 26.54 22.99 26.37C23.43 26.08 23.9 25.71 24.39 25.24C24.88 24.78 25.37 24.28 25.86 23.75C26.35 23.23 26.81 22.69 27.26 22.15C27.71 21.61 28.11 21.12 28.46 20.68C28.81 20.24 29.09 19.88 29.32 19.59C29.55 19.29 29.68 19.14 29.72 19.11C29.77 19.07 29.84 19.06 29.94 19.06C30.03 19.06 30.12 19.08 30.2 19.12C30.29 19.16 30.35 19.22 30.39 19.3C30.44 19.37 30.44 19.46 30.38 19.58C30.35 19.65 30.23 19.85 30.02 20.16C29.82 20.48 29.55 20.87 29.21 21.34C28.87 21.82 28.47 22.34 28.01 22.91C27.56 23.48 27.07 24.06 26.54 24.66C26.02 25.25 25.46 25.83 24.88 26.4C24.3 26.96 23.71 27.47 23.12 27.91C23.01 27.97 22.87 28.07 22.67 28.2C22.47 28.33 22.24 28.45 21.98 28.57C21.71 28.69 21.43 28.78 21.12 28.85C20.82 28.92 20.52 28.93 20.23 28.9C20 28.86 19.82 28.77 19.69 28.64C19.56 28.5 19.47 28.32 19.42 28.1C19.36 27.87 19.35 27.62 19.38 27.32C19.4 27.03 19.45 26.72 19.53 26.39C19.25 26.67 18.91 26.96 18.5 27.25C18.1 27.54 17.68 27.8 17.24 28.03C16.8 28.26 16.38 28.45 15.97 28.61C15.56 28.77 15.21 28.85 14.92 28.86C14.46 28.87 14.07 28.81 13.74 28.67C13.41 28.54 13.14 28.36 12.93 28.13C12.73 27.9 12.57 27.64 12.48 27.35C12.38 27.07 12.34 26.78 12.34 26.5C12.34 26.1 12.4 25.65 12.53 25.13C12.65 24.62 12.84 24.08 13.09 23.53C13.33 22.98 13.64 22.43 14.02 21.89C14.39 21.35 14.82 20.85 15.33 20.39C15.83 19.92 16.38 19.52 17.01 19.18C17.63 18.84 18.32 18.6 19.07 18.46C19.54 18.37 19.96 18.35 20.33 18.39C20.69 18.42 21.01 18.51 21.28 18.64C21.56 18.77 21.78 18.94 21.96 19.15C22.14 19.36 22.27 19.58 22.36 19.82C22.51 19.53 22.65 19.29 22.77 19.07C22.89 18.86 22.99 18.7 23.06 18.59C23.26 18.24 23.47 17.99 23.69 17.84C23.9 17.68 24.1 17.58 24.28 17.52C24.47 17.46 24.63 17.44 24.76 17.45C24.9 17.47 24.99 17.48 25.04 17.48ZM16.4 27.28C16.62 27.27 16.89 27.19 17.23 27.03C17.56 26.88 17.91 26.67 18.27 26.4C18.63 26.13 18.98 25.82 19.32 25.47C19.67 25.11 19.96 24.73 20.2 24.32C20.39 23.85 20.59 23.37 20.81 22.89C21.04 22.41 21.25 21.94 21.47 21.49C21.55 21.12 21.55 20.83 21.49 20.62C21.42 20.41 21.33 20.25 21.21 20.14C21.09 20.03 20.96 19.95 20.8 19.92C20.65 19.89 20.53 19.88 20.44 19.88C20.22 19.86 19.94 19.96 19.63 20.16C19.31 20.37 18.98 20.65 18.62 20.99C18.27 21.34 17.91 21.74 17.56 22.18C17.2 22.63 16.88 23.09 16.59 23.56C16.3 24.03 16.05 24.49 15.85 24.95C15.65 25.4 15.52 25.8 15.48 26.14C15.44 26.49 15.48 26.77 15.61 26.98C15.75 27.19 16.01 27.29 16.4 27.28Z" fill="#ED165F" fill-opacity="1.000000" fill-rule="nonzero"/>
	<path id="XMLID 30" d="M33.86 13.03C34.07 13.02 34.24 13.06 34.39 13.15C34.53 13.24 34.64 13.36 34.72 13.51C34.79 13.66 34.83 13.83 34.81 14.01C34.8 14.19 34.75 14.35 34.66 14.5C34.12 15.35 33.53 16.34 32.9 17.45C32.26 18.56 31.62 19.74 30.98 21.01C31.7 21.11 32.44 21.18 33.21 21.23C33.97 21.28 34.69 21.28 35.35 21.21C36.02 21.15 36.6 21.02 37.09 20.82C37.59 20.61 37.93 20.3 38.12 19.89C38.23 19.66 38.37 19.5 38.54 19.43C38.71 19.36 38.87 19.35 39.01 19.4C39.15 19.46 39.25 19.56 39.32 19.71C39.39 19.86 39.39 20.03 39.31 20.23C39.08 20.78 38.76 21.22 38.33 21.56C37.9 21.9 37.41 22.17 36.87 22.36C36.34 22.55 35.76 22.68 35.15 22.74C34.53 22.8 33.93 22.82 33.32 22.81C32.72 22.79 32.16 22.75 31.63 22.68C31.09 22.61 30.63 22.54 30.24 22.46C30.14 22.67 30.04 22.88 29.95 23.09C29.85 23.29 29.75 23.5 29.65 23.71C29.78 24.18 29.91 24.74 30.06 25.38C30.21 26.03 30.32 26.73 30.41 27.5C30.5 28.27 30.55 29.08 30.56 29.94C30.58 30.8 30.52 31.67 30.39 32.56C30.2 33.85 29.95 34.95 29.63 35.85C29.32 36.75 28.97 37.48 28.59 38.06C28.21 38.64 27.82 39.08 27.41 39.4C27.01 39.72 26.62 39.95 26.26 40.09C25.89 40.23 25.56 40.31 25.26 40.33C24.96 40.35 24.73 40.35 24.57 40.32C24.06 40.25 23.62 40.05 23.24 39.75C22.86 39.44 22.56 39.04 22.33 38.55C22.1 38.07 21.95 37.52 21.89 36.9C21.83 36.28 21.86 35.62 21.98 34.93C22.14 34.12 22.38 33.23 22.71 32.24C23.03 31.25 23.42 30.22 23.87 29.14C24.32 28.06 24.81 26.97 25.32 25.86C25.84 24.75 26.37 23.67 26.9 22.63C26.46 22.15 26.08 21.89 25.76 21.87C25.56 21.86 25.47 21.76 25.5 21.6C25.52 21.43 25.61 21.25 25.76 21.05C25.91 20.85 26.09 20.67 26.3 20.5C26.51 20.33 26.69 20.25 26.84 20.25C26.87 20.25 26.99 20.28 27.19 20.32C27.4 20.37 27.67 20.43 28 20.49C28.38 19.76 28.74 19.08 29.09 18.44C29.44 17.8 29.75 17.23 30.03 16.73C30.31 16.24 30.54 15.82 30.73 15.49C30.92 15.15 31.05 14.93 31.11 14.82C31.28 14.52 31.49 14.26 31.74 14.05C31.99 13.83 32.25 13.65 32.53 13.51C32.8 13.36 33.05 13.25 33.29 13.18C33.53 13.1 33.72 13.05 33.86 13.03ZM29.29 32.19C29.42 30.96 29.41 29.82 29.27 28.75C29.13 27.68 28.92 26.72 28.62 25.85C28.13 26.93 27.66 27.99 27.21 29.05C26.76 30.1 26.36 31.11 26.02 32.06C25.67 33.02 25.38 33.9 25.14 34.71C24.91 35.53 24.75 36.23 24.67 36.83C24.59 37.44 24.59 37.91 24.69 38.27C24.78 38.62 24.99 38.81 25.3 38.85C26 38.93 26.57 38.77 27.01 38.37C27.46 37.97 27.82 37.44 28.1 36.78C28.39 36.12 28.62 35.38 28.8 34.57C28.97 33.75 29.14 32.96 29.29 32.19Z" fill="#ED165F" fill-opacity="1.000000" fill-rule="nonzero"/>
	<path id="XMLID 26" d="M46.77 17.48C47 17.48 47.18 17.52 47.33 17.62C47.47 17.71 47.59 17.81 47.66 17.93C47.74 18.05 47.78 18.17 47.8 18.3C47.82 18.43 47.82 18.54 47.81 18.63C47.76 18.86 47.65 19.16 47.47 19.52C47.29 19.88 47.09 20.28 46.85 20.71C46.62 21.15 46.36 21.61 46.08 22.1C45.81 22.59 45.54 23.07 45.29 23.54C45.03 24.01 44.8 24.47 44.6 24.92C44.4 25.36 44.26 25.76 44.17 26.11C44.09 26.39 44.1 26.55 44.19 26.58C44.29 26.61 44.46 26.54 44.72 26.37C45.16 26.08 45.63 25.71 46.12 25.24C46.61 24.78 47.1 24.28 47.59 23.75C48.08 23.23 48.55 22.69 48.99 22.15C49.44 21.61 49.84 21.12 50.19 20.68C50.54 20.24 50.83 19.88 51.05 19.59C51.28 19.29 51.41 19.14 51.45 19.11C51.5 19.07 51.58 19.06 51.67 19.06C51.77 19.06 51.85 19.08 51.94 19.12C52.02 19.16 52.08 19.22 52.13 19.3C52.17 19.37 52.17 19.46 52.12 19.58C52.08 19.65 51.96 19.85 51.76 20.16C51.55 20.48 51.28 20.87 50.94 21.34C50.6 21.82 50.2 22.34 49.74 22.91C49.29 23.48 48.8 24.06 48.27 24.66C47.75 25.25 47.19 25.83 46.61 26.4C46.03 26.96 45.44 27.47 44.85 27.91C44.75 27.97 44.6 28.07 44.4 28.2C44.21 28.33 43.97 28.45 43.71 28.57C43.44 28.69 43.16 28.78 42.85 28.85C42.55 28.92 42.25 28.93 41.96 28.9C41.73 28.86 41.55 28.77 41.42 28.64C41.29 28.5 41.2 28.32 41.15 28.1C41.1 27.87 41.08 27.62 41.11 27.32C41.13 27.03 41.19 26.72 41.26 26.39C40.98 26.67 40.64 26.96 40.24 27.25C39.83 27.54 39.41 27.8 38.97 28.03C38.54 28.26 38.11 28.45 37.7 28.61C37.29 28.77 36.94 28.85 36.65 28.86C36.19 28.87 35.8 28.81 35.47 28.67C35.14 28.54 34.87 28.36 34.67 28.13C34.46 27.9 34.31 27.64 34.21 27.35C34.11 27.07 34.07 26.78 34.07 26.5C34.07 26.1 34.13 25.65 34.26 25.13C34.38 24.62 34.57 24.08 34.82 23.53C35.06 22.98 35.37 22.43 35.75 21.89C36.12 21.35 36.56 20.85 37.06 20.39C37.56 19.92 38.12 19.52 38.74 19.18C39.36 18.84 40.05 18.6 40.81 18.46C41.27 18.37 41.69 18.35 42.06 18.39C42.43 18.42 42.74 18.51 43.02 18.64C43.29 18.77 43.51 18.94 43.69 19.15C43.87 19.36 44 19.58 44.09 19.82C44.24 19.53 44.38 19.29 44.5 19.07C44.62 18.86 44.72 18.7 44.79 18.59C44.99 18.24 45.2 17.99 45.42 17.84C45.63 17.68 45.83 17.58 46.02 17.52C46.2 17.46 46.36 17.44 46.49 17.45C46.63 17.47 46.72 17.48 46.77 17.48ZM38.13 27.28C38.35 27.27 38.62 27.19 38.96 27.03C39.29 26.88 39.64 26.67 40 26.4C40.36 26.13 40.71 25.82 41.06 25.47C41.4 25.11 41.69 24.73 41.93 24.32C42.12 23.85 42.32 23.37 42.55 22.89C42.77 22.41 42.99 21.94 43.2 21.49C43.28 21.12 43.28 20.83 43.22 20.62C43.16 20.41 43.06 20.25 42.94 20.14C42.82 20.03 42.69 19.95 42.53 19.92C42.38 19.89 42.26 19.88 42.17 19.88C41.95 19.86 41.67 19.96 41.36 20.16C41.04 20.37 40.71 20.65 40.35 20.99C40 21.34 39.64 21.74 39.29 22.18C38.93 22.63 38.61 23.09 38.32 23.56C38.03 24.03 37.78 24.49 37.58 24.95C37.38 25.4 37.25 25.8 37.21 26.14C37.17 26.49 37.21 26.77 37.34 26.98C37.48 27.19 37.74 27.29 38.13 27.28Z" fill="#ED165F" fill-opacity="1.000000" fill-rule="nonzero"/>
	<path id="XMLID 10" d="M51.61 16.12C51.87 16.11 52.09 16.16 52.26 16.29C52.43 16.41 52.52 16.61 52.52 16.9C52.52 17.04 52.47 17.23 52.38 17.48C52.28 17.72 52.18 17.97 52.08 18.22C51.94 18.51 51.8 18.81 51.65 19.13C51.73 19.27 51.96 19.33 52.31 19.33C52.66 19.32 53.07 19.28 53.53 19.21C53.98 19.13 54.45 19.05 54.93 18.96C55.41 18.88 55.82 18.82 56.16 18.8C56.43 18.78 56.63 18.84 56.77 18.96C56.91 19.07 57 19.22 57.06 19.39C57.11 19.57 57.12 19.75 57.08 19.94C57.05 20.13 56.99 20.29 56.9 20.41C56.85 20.49 56.73 20.7 56.52 21.06C56.32 21.41 56.09 21.84 55.83 22.34C55.57 22.84 55.31 23.38 55.05 23.95C54.79 24.52 54.59 25.05 54.44 25.54C54.28 26.03 54.21 26.45 54.22 26.8C54.22 27.15 54.37 27.34 54.65 27.37C54.8 27.4 55.06 27.29 55.42 27.04C55.79 26.79 56.22 26.46 56.71 26.03C57.19 25.61 57.71 25.12 58.25 24.57C58.8 24.01 59.33 23.44 59.84 22.85C60.35 22.27 60.82 21.7 61.24 21.12C61.67 20.55 62 20.04 62.24 19.58C62.3 19.45 62.4 19.37 62.53 19.33C62.67 19.28 62.8 19.28 62.93 19.32C63.06 19.35 63.17 19.44 63.25 19.56C63.34 19.68 63.36 19.86 63.32 20.08C63.31 20.14 63.2 20.33 63.01 20.65C62.81 20.96 62.55 21.36 62.22 21.83C61.89 22.3 61.5 22.82 61.04 23.4C60.59 23.98 60.1 24.56 59.57 25.14C59.05 25.72 58.49 26.28 57.91 26.81C57.33 27.35 56.74 27.8 56.14 28.18C55.55 28.56 54.96 28.84 54.37 29.02C53.78 29.2 53.21 29.23 52.67 29.1C52.15 28.98 51.76 28.77 51.48 28.49C51.21 28.2 51.04 27.86 50.96 27.47C50.89 27.07 50.89 26.64 50.96 26.16C51.04 25.69 51.16 25.22 51.31 24.75C51.47 24.28 51.66 23.82 51.87 23.36C52.09 22.91 52.3 22.51 52.5 22.15C52.7 21.79 52.87 21.49 53.02 21.26C53.17 21.03 53.26 20.89 53.3 20.84C53.43 20.67 53.45 20.54 53.34 20.45C53.23 20.37 53.09 20.35 52.92 20.41C52.73 20.49 52.46 20.55 52.13 20.6C51.79 20.65 51.46 20.63 51.12 20.55C50.79 20.46 50.49 20.27 50.24 19.99C49.99 19.7 49.85 19.26 49.84 18.67C49.83 18.48 49.85 18.25 49.92 17.96C49.99 17.68 50.1 17.4 50.26 17.13C50.41 16.87 50.59 16.63 50.82 16.44C51.04 16.24 51.31 16.13 51.61 16.12Z" fill="#ED165F" fill-opacity="1.000000" fill-rule="nonzero"/>
	<path id="XMLID 7" d="M63.85 18.91C64.08 18.92 64.27 18.97 64.42 19.06C64.57 19.14 64.69 19.25 64.76 19.37C64.84 19.5 64.89 19.62 64.9 19.75C64.92 19.88 64.93 19.99 64.91 20.08C64.84 20.41 64.65 20.86 64.34 21.43C64.04 21.99 63.71 22.59 63.34 23.23C62.97 23.87 62.62 24.52 62.28 25.18C61.95 25.83 61.71 26.42 61.57 26.94C61.5 27.23 61.54 27.38 61.7 27.39C61.85 27.4 62.06 27.33 62.31 27.17C62.74 26.88 63.24 26.5 63.81 26.02C64.38 25.55 64.96 25.03 65.56 24.48C66.15 23.93 66.74 23.37 67.32 22.81C67.89 22.26 68.41 21.74 68.86 21.28C69.32 20.81 69.69 20.43 69.99 20.13C70.29 19.82 70.46 19.66 70.49 19.63C70.55 19.6 70.62 19.58 70.71 19.58C70.81 19.58 70.9 19.6 70.98 19.64C71.06 19.69 71.12 19.75 71.17 19.82C71.21 19.89 71.21 19.99 71.16 20.1C71.12 20.17 70.96 20.38 70.68 20.7C70.41 21.03 70.05 21.44 69.6 21.93C69.16 22.42 68.65 22.97 68.07 23.57C67.48 24.17 66.88 24.78 66.24 25.39C65.61 25.99 64.96 26.58 64.31 27.16C63.65 27.74 63.02 28.25 62.43 28.7C62.34 28.76 62.19 28.86 61.99 28.98C61.79 29.12 61.56 29.24 61.3 29.36C61.04 29.47 60.76 29.57 60.45 29.64C60.15 29.72 59.85 29.74 59.54 29.7C59.07 29.64 58.79 29.39 58.68 28.95C58.57 28.51 58.58 27.97 58.71 27.33C58.83 26.69 59.05 25.99 59.34 25.23C59.64 24.48 59.95 23.75 60.28 23.06C60.61 22.36 60.92 21.74 61.22 21.2C61.52 20.65 61.74 20.26 61.88 20.03C62.08 19.69 62.29 19.44 62.5 19.28C62.72 19.12 62.92 19.01 63.1 18.96C63.28 18.9 63.44 18.88 63.58 18.89C63.71 18.9 63.8 18.91 63.85 18.91ZM64.1 15.78C64.21 15.56 64.35 15.37 64.5 15.21C64.66 15.04 64.83 14.92 65.01 14.83C65.18 14.75 65.37 14.7 65.56 14.69C65.75 14.67 65.92 14.7 66.09 14.78C66.25 14.86 66.39 14.99 66.5 15.14C66.61 15.3 66.68 15.47 66.72 15.66C66.75 15.85 66.76 16.06 66.73 16.29C66.69 16.51 66.62 16.73 66.51 16.95C66.39 17.18 66.26 17.37 66.1 17.53C65.94 17.69 65.77 17.82 65.6 17.9C65.42 17.99 65.24 18.04 65.05 18.05C64.86 18.06 64.68 18.03 64.52 17.96C64.19 17.8 63.98 17.51 63.9 17.08C63.82 16.66 63.88 16.23 64.1 15.78Z" fill="#ED165F" fill-opacity="1.000000" fill-rule="nonzero"/>
</svg>
