<svg width="17.000000" height="16.000000" viewBox="0 0 17 16" fill="none" xmlns="http://www.w3.org/2000/svg" xmlns:xlink="http://www.w3.org/1999/xlink">
	<desc>
			Created with Pixso.
	</desc>
	<defs/>
	<path id="Vector" d="M5.87 0C7.48 0 9.02 0.62 10.16 1.74C11.3 2.85 11.94 4.36 11.94 5.94C11.94 7.41 11.39 8.76 10.48 9.81L10.73 10.05L11.47 10.05L16.13 14.62L14.74 16L10.07 11.42L10.07 10.7L9.82 10.45C8.72 11.37 7.32 11.88 5.87 11.88C4.27 11.88 2.72 11.25 1.59 10.14C0.45 9.03 -0.19 7.51 -0.19 5.94C-0.19 4.36 0.45 2.85 1.59 1.74C2.72 0.62 4.27 0 5.87 0ZM5.87 1.82C3.54 1.82 1.68 3.65 1.68 5.94C1.68 8.22 3.54 10.05 5.87 10.05C8.21 10.05 10.07 8.22 10.07 5.94C10.07 3.65 8.21 1.82 5.87 1.82Z" fill="#000000" fill-opacity="1.000000" fill-rule="nonzero"/>
</svg>
