<svg width="17.000000" height="15.000000" viewBox="0 0 17 15" fill="none" xmlns="http://www.w3.org/2000/svg" xmlns:xlink="http://www.w3.org/1999/xlink">
	<desc>
			Created with Pixso.
	</desc>
	<defs/>
	<path id="Vector" d="M14.8 1.39C13.96 0.49 12.8 0 11.54 0C10.59 0 9.73 0.29 8.97 0.86C8.59 1.15 8.24 1.51 7.93 1.92C7.63 1.51 7.28 1.15 6.9 0.86C6.14 0.29 5.27 0 4.33 0C3.07 0 1.91 0.49 1.07 1.39C0.23 2.28 -0.23 3.49 -0.23 4.8C-0.23 6.16 0.29 7.4 1.39 8.7C2.38 9.87 3.8 11.06 5.44 12.43C6.01 12.9 6.64 13.43 7.3 14C7.48 14.15 7.7 14.23 7.93 14.23C8.17 14.23 8.39 14.15 8.56 14C9.23 13.43 9.86 12.9 10.42 12.43C12.07 11.06 13.49 9.87 14.48 8.7C15.58 7.4 16.1 6.16 16.1 4.8C16.1 3.49 15.64 2.28 14.8 1.39Z" fill="#000000" fill-opacity="1.000000" fill-rule="nonzero"/>
</svg>
