<svg width="17.000000" height="16.000000" viewBox="0 0 17 16" fill="none" xmlns="http://www.w3.org/2000/svg" xmlns:xlink="http://www.w3.org/1999/xlink">
	<desc>
			Created with Pixso.
	</desc>
	<defs/>
	<path id="Vector" d="M12.9 12.8C12 12.8 11.27 13.51 11.27 14.4C11.27 14.82 11.44 15.23 11.75 15.53C12.06 15.83 12.47 16 12.9 16C13.34 16 13.75 15.83 14.06 15.53C14.36 15.23 14.54 14.82 14.54 14.4C14.54 13.97 14.36 13.56 14.06 13.26C13.75 12.96 13.34 12.8 12.9 12.8ZM-0.15 0L-0.15 1.59L1.48 1.59L4.42 7.67L3.31 9.63C3.18 9.85 3.11 10.12 3.11 10.4C3.11 10.82 3.28 11.23 3.59 11.53C3.89 11.83 4.31 12 4.74 12L14.54 12L14.54 10.4L5.09 10.4C5.03 10.4 4.98 10.37 4.94 10.34C4.9 10.3 4.88 10.25 4.88 10.2C4.88 10.16 4.89 10.12 4.91 10.1L5.64 8.79L11.72 8.79C12.33 8.79 12.87 8.46 13.15 7.97L16.07 2.79C16.13 2.67 16.17 2.53 16.17 2.4C16.17 2.18 16.08 1.98 15.93 1.83C15.78 1.68 15.57 1.59 15.35 1.59L3.28 1.59L2.52 0L-0.15 0ZM4.74 12.8C3.84 12.8 3.11 13.51 3.11 14.4C3.11 14.82 3.28 15.23 3.59 15.53C3.89 15.83 4.31 16 4.74 16C5.18 16 5.59 15.83 5.9 15.53C6.2 15.23 6.38 14.82 6.38 14.4C6.38 13.97 6.2 13.56 5.9 13.26C5.59 12.96 5.18 12.8 4.74 12.8Z" fill="#000000" fill-opacity="1.000000" fill-rule="nonzero"/>
</svg>
