<svg width="17.000000" height="16.000000" viewBox="0 0 17 16" fill="none" xmlns="http://www.w3.org/2000/svg" xmlns:xlink="http://www.w3.org/1999/xlink">
	<desc>
			Created with Pixso.
	</desc>
	<defs/>
	<path id="Vector" d="M8.08 0C9.16 0 10.2 0.42 10.97 1.17C11.73 1.92 12.16 2.93 12.16 4C12.16 5.06 11.73 6.07 10.97 6.82C10.2 7.57 9.16 8 8.08 8C7 8 5.96 7.57 5.2 6.82C4.43 6.07 4 5.06 4 4C4 2.93 4.43 1.92 5.2 1.17C5.96 0.42 7 0 8.08 0ZM8.08 10C12.59 10 16.24 11.79 16.24 14L16.24 16L-0.08 16L-0.08 14C-0.08 11.79 3.57 10 8.08 10Z" fill="#ED165F" fill-opacity="1.000000" fill-rule="nonzero"/>
</svg>
